<?xml version="1.0" encoding="utf-8"?>
<svg version="1.1" id="Layer_1" xmlns="http://www.w3.org/2000/svg" xmlns:xlink="http://www.w3.org/1999/xlink" x="0px" y="0px"
	 viewBox="0 0 32 32" style="enable-background:new 0 0 32 32;" xml:space="preserve">
<title>volume-medium</title>
<path d="M21.89,22.74c-0.26,0-0.52-0.1-0.72-0.3c-0.4-0.4-0.4-1.04,0-1.43c2.76-2.76,2.76-7.26,0-10.02c-0.4-0.4-0.4-1.04,0-1.43
	c0.4-0.39,1.04-0.4,1.43,0c1.72,1.72,2.67,4.01,2.67,6.44s-0.95,4.72-2.67,6.44C22.41,22.64,22.15,22.74,21.89,22.74L21.89,22.74
	L21.89,22.74z M18.3,20.83c-0.26,0-0.52-0.1-0.72-0.3c-0.4-0.4-0.4-1.04,0-1.43c1.71-1.71,1.71-4.49,0-6.2c-0.4-0.4-0.4-1.04,0-1.43
	c0.4-0.39,1.04-0.4,1.43,0c2.5,2.5,2.5,6.56,0,9.06C18.82,20.73,18.56,20.83,18.3,20.83L18.3,20.83z"/>
<path d="M15.49,25.44c-0.18,0-0.35-0.07-0.48-0.2l-5.2-5.2H7.4c-0.37,0-0.67-0.3-0.67-0.67v-6.75c0-0.37,0.3-0.67,0.67-0.67h2.42
	l5.2-5.2c0.19-0.19,0.48-0.25,0.74-0.15s0.42,0.35,0.42,0.62v17.54c0,0.27-0.16,0.52-0.42,0.62C15.67,25.43,15.58,25.44,15.49,25.44
	z"/>
</svg>
